<?xml version="1.0" encoding="utf-8"?>
<!-- Generator: Adobe Illustrator 22.1.0, SVG Export Plug-In . SVG Version: 6.00 Build 0)  -->
<svg version="1.1" id="Layer_1" xmlns="http://www.w3.org/2000/svg" xmlns:xlink="http://www.w3.org/1999/xlink" x="0px" y="0px"
	 viewBox="0 0 49 64" style="enable-background:new 0 0 49 64;" xml:space="preserve">
<style type="text/css">
	.st0{fill:#D44652;stroke:#FFFFFF;stroke-width:2;}
	.st1{fill:#FFFFFF;}
</style>
<g transform="translate(1 1)">
	<path class="st0" d="M0,23.3c0,5.2,1.7,10.1,4.7,13.9L23.4,62l18.8-24.8c2.9-3.9,4.7-8.7,4.7-13.9C46.9,10.4,36.4,0,23.4,0
		C10.5,0,0,10.4,0,23.3z"/>
	<path class="st1" d="M23.4,38.8c-8.6,0-15.7-6.9-15.7-15.5c0-8.6,7-15.5,15.7-15.5c8.6,0,15.7,6.9,15.7,15.5
		C39.1,31.8,32.1,38.8,23.4,38.8z"/>
</g>
</svg>
